<svg width="78" height="27" viewBox="0 0 78 27" fill="none" xmlns="http://www.w3.org/2000/svg">
<path fill-rule="evenodd" clip-rule="evenodd" d="M46.6787 11.1401H45.7804L47.2603 1.7962L49.0397 1.64832L48.5499 4.74054C48.9713 4.54335 49.3999 4.44476 49.8354 4.44476C50.5251 4.44476 51.093 4.58369 51.539 4.86154C51.9941 5.13939 52.3128 5.53376 52.495 6.04465C52.6863 6.55554 52.7266 7.16054 52.6159 7.85965C52.508 8.54083 52.2768 9.14135 51.9222 9.6612C51.5781 10.1721 51.1331 10.5754 50.5872 10.8712C50.0426 11.158 49.4119 11.3014 48.695 11.3014C48.4137 11.3014 48.1325 11.2432 47.8515 11.1266C47.5705 11.0101 47.3217 10.8622 47.1051 10.683L46.6787 11.1401ZM49.531 5.93709C49.3223 5.93709 49.117 5.97295 48.915 6.04465C48.7236 6.10739 48.5181 6.2015 48.2986 6.32698L47.8067 9.43265C47.9851 9.56709 48.16 9.66568 48.3316 9.72843C48.5136 9.7822 48.709 9.80909 48.9177 9.80909C49.4169 9.80909 49.8316 9.62535 50.1621 9.25787C50.4939 8.88143 50.7039 8.41535 50.7919 7.85965C50.8813 7.29498 50.8183 6.83339 50.6029 6.47487C50.3874 6.11635 50.0301 5.93709 49.531 5.93709Z" fill="white"/>
<path d="M34.9662 11.1401L39.2047 1.99787H37.4351L34.6374 8.74698L33.9504 1.99787H32.1809L29.3832 8.74698L28.6767 1.86343L26.8688 2.10543L28.2147 11.1401H29.712L32.6466 4.47165L33.4689 11.1401H34.9662Z" fill="white"/>
<path fill-rule="evenodd" clip-rule="evenodd" d="M44.9944 8.39743H40.5433C40.5568 8.82765 40.6882 9.17272 40.9374 9.43265C41.1972 9.68361 41.6537 9.80909 42.3071 9.80909C42.6973 9.80909 43.0507 9.75531 43.3672 9.64776C43.6837 9.5402 44.0006 9.40128 44.3179 9.23098L44.635 10.4948C44.2896 10.7278 43.9097 10.9205 43.4954 11.0729C43.0901 11.2252 42.6016 11.3014 42.0299 11.3014C40.7504 11.3014 39.842 10.9922 39.3047 10.3738C38.7674 9.75532 38.5811 8.92624 38.7458 7.88654C38.8565 7.18743 39.0839 6.58243 39.428 6.07154C39.7826 5.55169 40.2314 5.15283 40.7745 4.87498C41.3191 4.58817 41.9316 4.44476 42.6122 4.44476C43.3019 4.44476 43.8442 4.60161 44.2392 4.91532C44.6342 5.22902 44.8949 5.6458 45.0212 6.16565C45.1581 6.67654 45.1776 7.2412 45.0796 7.85965L44.9944 8.39743ZM40.7422 7.22776H43.5054C43.4842 6.78858 43.372 6.46591 43.1687 6.25976C42.9668 6.04465 42.6889 5.93709 42.335 5.93709C41.972 5.93709 41.6503 6.04913 41.3698 6.2732C41.0907 6.48832 40.8815 6.8065 40.7422 7.22776Z" fill="white"/>
<path d="M57.3072 2.47266C57.9424 2.47266 58.4517 2.58022 58.8351 2.79533C59.2275 3.01044 59.4997 3.29725 59.6516 3.65577C59.8141 4.00533 59.8619 4.39074 59.7952 4.812C59.7526 5.08088 59.6577 5.33633 59.5105 5.57833C59.3633 5.82033 59.1892 6.03096 58.9884 6.21022C58.7981 6.38051 58.6058 6.50599 58.4116 6.58666C58.5783 6.62251 58.742 6.73455 58.9028 6.92277C59.0741 7.10203 59.2043 7.33955 59.2936 7.63533C59.3934 7.92214 59.4134 8.25377 59.3538 8.63022C59.2757 9.12318 59.0732 9.57133 58.7461 9.97466C58.4191 10.378 57.9966 10.6962 57.4787 10.9292C56.9609 11.1623 56.3753 11.2788 55.7219 11.2788C55.2228 11.2788 54.7197 11.1891 54.2127 11.0099C53.7133 10.8396 53.272 10.6469 52.8886 10.4318L53.9723 9.26211C54.3012 9.47722 54.6166 9.63407 54.9186 9.73266C55.222 9.82229 55.5734 9.86711 55.9727 9.86711C56.2449 9.86711 56.5068 9.81781 56.7584 9.71922C57.0099 9.62063 57.2225 9.4817 57.3961 9.30244C57.5802 9.11422 57.6921 8.89463 57.7318 8.64366C57.7971 8.23137 57.6856 7.90422 57.3973 7.66222C57.118 7.42022 56.6199 7.29922 55.903 7.29922H55.3313L55.3013 5.94133H56.1997C56.7533 5.94133 57.2045 5.84274 57.5533 5.64555C57.9127 5.4394 58.1186 5.17051 58.1711 4.83888C58.2123 4.57896 58.1298 4.35488 57.9237 4.16666C57.7266 3.97844 57.433 3.88433 57.0428 3.88433C56.6344 3.88433 56.2412 3.96051 55.8632 4.11288C55.4956 4.25629 55.1758 4.41314 54.9039 4.58344L54.2588 3.41377C54.7489 3.12696 55.2433 2.8984 55.7422 2.72811C56.241 2.55781 56.7627 2.47266 57.3072 2.47266Z" fill="white"/>
<path d="M47.6083 23.046H46.533L48.015 13.6886L49.1117 13.5542L47.6083 23.046Z" fill="white"/>
<path fill-rule="evenodd" clip-rule="evenodd" d="M28.4075 13.9037H29.442L31.5596 22.9653L30.4723 23.1266L29.8615 20.4512H25.9548L24.5774 23.046H23.5293L28.4075 13.9037ZM29.6847 19.5907L28.6897 15.302L26.3906 19.5907H29.6847Z" fill="white"/>
<path d="M33.6209 23.046H32.532L33.5647 16.5254H34.3814L34.4115 17.4531C34.7697 17.1394 35.1927 16.875 35.6805 16.6599C36.1788 16.4358 36.6457 16.3237 37.0813 16.3237C37.8073 16.3237 38.2989 16.5433 38.556 16.9825C38.8131 17.4217 38.8899 17.9684 38.7862 18.6227L38.0878 23.0325H37.0124L37.6875 18.7706C37.7584 18.3225 37.7304 17.955 37.6034 17.6682C37.4855 17.3814 37.1997 17.238 36.746 17.238C36.4102 17.238 36.0151 17.3545 35.5608 17.5875C35.1169 17.8116 34.7145 18.0894 34.3534 18.4211L33.6209 23.046Z" fill="white"/>
<path fill-rule="evenodd" clip-rule="evenodd" d="M40.9664 16.9153L41.1517 17.722C41.4138 17.6144 41.6971 17.5158 42.0017 17.4262C42.3167 17.3276 42.6921 17.2783 43.1277 17.2783C43.654 17.2783 44.0026 17.4262 44.1736 17.722C44.3445 18.0177 44.3945 18.3897 44.3235 18.8379L44.266 19.2009H42.5645C41.8658 19.2009 41.2664 19.3756 40.7664 19.7252C40.2678 20.0658 39.9681 20.5543 39.8673 21.1906C39.7764 21.7643 39.8865 22.2438 40.1975 22.6292C40.5085 23.0146 41.0452 23.2073 41.8075 23.2073C42.1704 23.2073 42.5469 23.1221 42.9369 22.9519C43.3359 22.7816 43.6607 22.5933 43.9111 22.3872L43.9429 23.046H44.746L45.4593 18.5421C45.5261 18.1208 45.4768 17.7444 45.3115 17.4127C45.1462 17.0811 44.8834 16.8212 44.523 16.633C44.1717 16.4447 43.7419 16.3506 43.2338 16.3506C43.0523 16.3506 42.8166 16.3775 42.5268 16.4313C42.2474 16.4761 41.9645 16.5433 41.6781 16.633C41.3931 16.7136 41.1558 16.8077 40.9664 16.9153ZM41.0212 21.9839C40.8703 21.7329 40.8169 21.4685 40.861 21.1906C40.9149 20.85 41.0752 20.5543 41.3418 20.3033C41.6189 20.0434 41.9798 19.9134 42.4244 19.9134H44.1668L43.9326 21.3923C43.6631 21.6612 43.3547 21.8897 43.0072 22.078C42.6598 22.2662 42.2955 22.3603 41.9144 22.3603C41.4788 22.3603 41.1811 22.2348 41.0212 21.9839Z" fill="white"/>
<path d="M51.1761 23.0056L50.5931 24.1081C50.4269 24.4128 50.2099 24.6369 49.9422 24.7803C49.673 24.9327 49.363 25.085 49.0122 25.2374L49.2175 26.0037C49.705 25.9051 50.1575 25.7124 50.575 25.4256C50.9911 25.1478 51.3089 24.8027 51.5285 24.3904L55.6871 16.5254H54.5982L51.9076 21.5671L50.7371 16.3237L49.7203 16.7271L51.1761 23.0056Z" fill="white"/>
<path d="M59.2644 16.633L59.4906 17.4396H57.9388L57.3426 21.2041C57.29 21.5357 57.3201 21.8046 57.4326 22.0107C57.5451 22.2169 57.7693 22.32 58.1051 22.32C58.2049 22.32 58.3114 22.3065 58.4245 22.2796C58.5482 22.2438 58.6484 22.2124 58.7253 22.1855L58.8383 23.0191C58.7118 23.0729 58.5542 23.1221 58.3657 23.167C58.1756 23.2207 57.9854 23.2476 57.7948 23.2476C57.2322 23.2476 56.8085 23.0863 56.5239 22.7636C56.2392 22.441 56.1458 21.9704 56.2438 21.352L56.8634 17.4396H55.9106L56.0248 16.633H56.9912L57.2553 14.9659L58.3774 14.6701L58.0666 16.633H59.2644Z" fill="white"/>
<path d="M61.2938 15.0196C61.4086 15.1541 61.5704 15.2213 61.7791 15.2213C61.9696 15.2213 62.1482 15.1541 62.3147 15.0196C62.4916 14.8762 62.5958 14.7059 62.627 14.5087C62.6596 14.3026 62.6095 14.1323 62.4765 13.9979C62.354 13.8544 62.1975 13.7827 62.0069 13.7827C61.7982 13.7827 61.6144 13.8544 61.4556 13.9979C61.2982 14.1323 61.2031 14.3026 61.1705 14.5087C61.1393 14.7059 61.1804 14.8762 61.2938 15.0196Z" fill="white"/>
<path d="M59.9953 23.046H61.0979L62.1306 16.5254H61.028L59.9953 23.046Z" fill="white"/>
<path d="M67.5887 21.8629L67.8076 22.6292C67.5972 22.7547 67.3487 22.8622 67.0623 22.9519C66.7864 23.0325 66.5087 23.0953 66.2294 23.1401C65.9577 23.1939 65.7311 23.2207 65.5496 23.2207C64.8872 23.2207 64.3382 23.0773 63.9026 22.7905C63.4776 22.4947 63.1792 22.0869 63.0074 21.5671C62.8357 21.0472 62.8038 20.4467 62.9116 19.7655C63.0167 19.1023 63.2413 18.5152 63.5853 18.0043C63.9308 17.4844 64.3713 17.0811 64.9068 16.7943C65.4437 16.4985 66.0433 16.3506 66.7058 16.3506C66.8873 16.3506 67.1054 16.3775 67.36 16.4313C67.6161 16.4761 67.8686 16.5433 68.1176 16.633C68.3756 16.7226 68.5861 16.8257 68.7492 16.9422L68.3032 17.6951C68.0662 17.5875 67.8186 17.4889 67.5606 17.3993C67.304 17.3007 66.9624 17.2514 66.5359 17.2514C66.0912 17.2514 65.6924 17.3634 65.3392 17.5875C64.9876 17.8026 64.695 18.1029 64.4615 18.4883C64.2386 18.8647 64.0856 19.286 64.0027 19.7521C63.8863 20.487 63.966 21.101 64.2419 21.594C64.5191 22.078 64.9981 22.32 65.6787 22.32C66.1233 22.32 66.4843 22.2751 66.7617 22.1855C67.0391 22.0959 67.3147 21.9883 67.5887 21.8629Z" fill="white"/>
<path d="M69.2159 21.9032L68.7542 22.6695C68.9081 22.786 69.1096 22.8891 69.3586 22.9787C69.609 23.0594 69.8629 23.1177 70.1204 23.1535C70.3765 23.1983 70.5952 23.2207 70.7767 23.2207C71.6388 23.2207 72.323 23.0549 72.8293 22.7233C73.3369 22.3827 73.6376 21.9166 73.7313 21.3251C73.7867 20.9755 73.7215 20.6708 73.5358 20.4109C73.3606 20.142 73.1148 19.9179 72.7983 19.7386C72.4924 19.5504 72.1731 19.3891 71.8405 19.2546C71.4276 19.1112 71.0849 18.9544 70.8124 18.7841C70.549 18.6138 70.4372 18.4031 70.4769 18.1522C70.5195 17.8833 70.6821 17.6592 70.9645 17.48C71.2561 17.3007 71.6061 17.2111 72.0144 17.2111C72.3956 17.2111 72.719 17.2604 72.9847 17.359C73.2504 17.4576 73.4843 17.5561 73.6865 17.6547L74.1418 16.9287C73.9878 16.8122 73.7909 16.7091 73.551 16.6195C73.3202 16.5299 73.0767 16.4627 72.8207 16.4179C72.5737 16.373 72.3594 16.3506 72.1779 16.3506C71.4156 16.3506 70.7859 16.5164 70.2887 16.8481C69.8021 17.1707 69.5133 17.6189 69.4224 18.1925C69.3671 18.5421 69.4239 18.8423 69.5928 19.0933C69.7723 19.3353 70.0119 19.5414 70.3116 19.7117C70.6218 19.8731 70.9401 20.012 71.2665 20.1285C71.6884 20.2719 72.0419 20.4467 72.3269 20.6529C72.6209 20.859 72.7452 21.1055 72.6998 21.3923C72.6515 21.697 72.4642 21.9346 72.1377 22.1049C71.8204 22.2751 71.4167 22.3603 70.9266 22.3603C70.5999 22.3603 70.2894 22.3155 69.9951 22.2259C69.7098 22.1362 69.4501 22.0287 69.2159 21.9032Z" fill="white"/>
<path d="M3.20425 6.49558L4.34375 0H16.2968L15.1573 6.49558L21.752 6.49558L18.5472 24.7644H11.1281L12.1251 19.0808H0.996465L2.2784 11.7732L13.4071 11.7732L14.3329 6.49558H3.20425Z" fill="#3765EF"/>
</svg>
