<?xml version="1.0" encoding="UTF-8"?>
<svg width="23px" height="28px" viewBox="0 0 23 28" version="1.1" xmlns="http://www.w3.org/2000/svg" xmlns:xlink="http://www.w3.org/1999/xlink">
    <title>经理人_o</title>
    <g id="页面-1" stroke="none" stroke-width="1" fill="none" fill-rule="evenodd" opacity="1">
        <g id="首页备份-6" transform="translate(-422.000000, -767.000000)" fill="#FFFFFF" fill-rule="nonzero">
            <g id="经理人_o" transform="translate(422.000000, 767.000000)">
                <path d="M7.02290078,26.25 L8.77862595,28 L0,28 L0,21.175 L3.6870229,17.5 L6.14503816,17.5 L7.54961834,19.25 L4.38931299,19.25 L1.75572521,21.875 L1.75572521,26.25 L7.02290078,26.25 Z M15.8015267,26.25 L21.0687023,26.25 L21.0687023,21.875 L18.4351145,19.25 L15.4503817,19.25 L16.8549618,17.5 L19.3129771,17.5 L23,21.175 L23,28 L14.2213741,28 L15.8015267,26.25 L15.8015267,26.25 Z M11.9389313,20.3 L14.0458015,25.375 L11.4122137,28 L8.77862595,25.375 L10.8854962,20.3 L8.77862595,17.5 L14.0458015,17.5 L11.9389313,20.3 L11.9389313,20.3 Z M19.3129771,7.87500001 C19.3129771,12.25 15.8015267,15.75 11.4122137,15.75 C7.02290074,15.75 3.51145037,12.25 3.51145037,7.87500001 C3.51145037,3.5 7.02290078,0 11.4122137,0 C15.8015267,0 19.3129771,3.5 19.3129771,7.87500001 Z M17.5572519,7.87500001 C17.5572519,4.54999999 14.7480916,1.74999998 11.4122137,1.74999998 C8.07633586,1.74999998 5.26717558,4.54999999 5.26717558,7.87500001 C5.26717558,11.2 8.0763359,14 11.4122137,14 C14.7480916,14 17.5572519,11.2 17.5572519,7.87500001 L17.5572519,7.87500001 Z" id="形状"></path>
            </g>
        </g>
    </g>
</svg>