<?xml version="1.0" encoding="UTF-8"?>
<svg width="25px" height="25px" viewBox="0 0 25 25" version="1.1" xmlns="http://www.w3.org/2000/svg" xmlns:xlink="http://www.w3.org/1999/xlink">
    <title>图表 (1)</title>
    <g id="页面-1" stroke="none" stroke-width="1" fill="none" fill-rule="evenodd" opacity="1">
        <g id="首页备份-6" transform="translate(-554.000000, -770.000000)" fill="#FFFFFF" fill-rule="nonzero">
            <g id="图表-(1)" transform="translate(554.000000, 770.000000)">
                <path d="M24.0384472,25.0000074 L0.961537889,25.0000074 C0.430495177,25.0000074 0,24.5695047 0,24.0384618 L0,0.96154561 C0,0.430502739 0.430495177,7.4339668e-06 0.961537889,7.4339668e-06 C1.4925806,7.4339668e-06 1.92307578,0.430502739 1.92307578,0.96154561 L1.92307578,23.0769236 L24.0384472,23.0769236 C24.5694899,23.0769236 24.9999851,23.507419 24.9999851,24.0384618 C24.9999851,24.5695047 24.5694899,25.0000074 24.0384472,25.0000074 Z" id="路径"></path>
                <path d="M7.69230311,24.0384618 C7.1612604,24.0384618 6.73076522,23.6079665 6.73076522,23.0769236 L6.73076522,13.4615419 C6.73076522,12.930499 7.1612604,12.5000037 7.69230311,12.5000037 C8.22334582,12.5000037 8.653841,12.930499 8.653841,13.4615419 L8.653841,23.0769236 C8.653841,23.6079665 8.22334582,24.0384618 7.69230311,24.0384618 Z M14.4230683,24.0384618 C13.8920256,24.0384618 13.4615304,23.6079665 13.4615304,23.0769236 L13.4615304,10.5769274 C13.4615304,10.0458845 13.8920256,9.61538919 14.4230683,9.61538919 C14.954111,9.61538919 15.3846062,10.0458845 15.3846062,10.5769274 L15.3846062,23.0769236 C15.3846062,23.6079665 14.954111,24.0384618 14.4230683,24.0384618 Z M21.1538336,24.0384618 C20.6227908,24.0384618 20.1922957,23.6079665 20.1922957,23.0769236 L20.1922957,8.65385101 C20.1922957,8.12280814 20.6227908,7.69231284 21.1538336,7.69231284 C21.6848763,7.69231284 22.1153714,8.12280814 22.1153714,8.65385101 L22.1153714,23.0769236 C22.1153714,23.6079665 21.6848763,24.0384618 21.1538336,24.0384618 Z M4.80768945,9.61541106 C4.50574315,9.61243601 4.22198946,9.47055912 4.03845913,9.23077392 C3.88544971,9.0267613 3.81975083,8.77032172 3.8558155,8.51786898 C3.89188017,8.26541624 4.02675415,8.03762994 4.23076671,7.88462047 L11.9230698,2.11539142 C12.2797724,1.79925903 12.8163665,1.79925903 13.1730691,2.11539142 L16.4422979,5.36539045 L23.4615245,0.192315069 C23.736344,-0.013799633 24.1002486,-0.0576429592 24.4161588,0.0773004473 C24.7320691,0.212243854 24.9519908,0.505472879 24.9930816,0.846530988 C25.0341723,1.1875891 24.8901895,1.52466145 24.61537,1.73077615 L16.9230668,7.5 C16.5424254,7.78998547 16.004881,7.74863589 15.6730676,7.40385139 L12.4999926,4.15385235 L5.38461218,9.42308156 C5.21884258,9.5491819 5.01596531,9.61680768 4.80768945,9.61541106 Z" id="形状"></path>
            </g>
        </g>
    </g>
</svg>