<?xml version="1.0" encoding="UTF-8"?>
<svg width="28px" height="25px" viewBox="0 0 28 25" version="1.1" xmlns="http://www.w3.org/2000/svg" xmlns:xlink="http://www.w3.org/1999/xlink">
    <title>电脑</title>
    <g id="页面-1" stroke="none" stroke-width="1" fill="none" fill-rule="evenodd">
        <g id="首页备份-6" transform="translate(-699.000000, -766.000000)" fill="#FFFFFF" fill-rule="nonzero">
            <g id="电脑" transform="translate(699.000000, 766.000000)">
                <path d="M13.125,8.92857144 C13.1249483,9.24759373 13.2917111,9.54240507 13.5624582,9.70193145 C13.8332054,9.86145783 14.1667946,9.86145783 14.4375418,9.70193145 C14.708289,9.54240507 14.8750517,9.24759373 14.875,8.92857144 C14.8750517,8.60954914 14.708289,8.3147378 14.4375418,8.15521142 C14.1667946,7.99568504 13.8332054,7.99568504 13.5624582,8.15521142 C13.2917111,8.3147378 13.1249483,8.60954914 13.125,8.92857144 L13.125,8.92857144 Z" id="路径"></path>
                <path d="M16.625,8.92857144 C16.6249483,9.24759373 16.7917111,9.54240507 17.0624582,9.70193145 C17.3332054,9.86145783 17.6667946,9.86145783 17.9375418,9.70193145 C18.208289,9.54240507 18.3750517,9.24759373 18.375,8.92857144 C18.3750517,8.60954914 18.208289,8.3147378 17.9375418,8.15521142 C17.6667946,7.99568504 17.3332054,7.99568504 17.0624582,8.15521142 C16.7917111,8.3147378 16.6249483,8.60954914 16.625,8.92857144 L16.625,8.92857144 Z" id="路径"></path>
                <path d="M9.62499998,8.92857144 C9.6249483,9.24759373 9.79171105,9.54240507 10.0624582,9.70193145 C10.3332054,9.86145783 10.6667946,9.86145783 10.9375418,9.70193145 C11.2082889,9.54240507 11.3750517,9.24759373 11.375,8.92857144 C11.3750517,8.60954914 11.2082889,8.3147378 10.9375418,8.15521142 C10.6667946,7.99568504 10.3332054,7.99568504 10.0624582,8.15521142 C9.79171105,8.3147378 9.6249483,8.60954914 9.62499998,8.92857144 L9.62499998,8.92857144 Z" id="路径"></path>
                <path d="M25.375,21.4285714 L2.62500001,21.4285714 C1.17525254,21.4285714 0,20.2293342 0,18.75 L0,2.67857144 C0,1.19923728 1.17525254,0 2.62500001,0 L25.375,0 C26.8247475,0 28,1.19923729 28,2.67857144 L28,18.75 C28,20.2293341 26.8247475,21.4285714 25.375,21.4285714 L25.375,21.4285714 Z M2.62500001,1.78571428 C2.14175085,1.78571428 1.75,2.18546005 1.75,2.67857144 L1.75,18.75 C1.75,19.2431114 2.14175085,19.6428572 2.62500001,19.6428572 L25.375,19.6428572 C25.8582492,19.6428572 26.25,19.2431114 26.25,18.75 L26.25,2.67857144 C26.25,2.18546006 25.8582492,1.78571428 25.375,1.78571428 L2.62500001,1.78571428 Z" id="形状"></path>
                <path d="M0.87500001,16.0714286 L27.125,16.0714286 L27.125,17.8571428 L0.87500001,17.8571428 L0.87500001,16.0714286 Z M9.625,20.5357143 L11.375,20.5357143 L11.375,24.1071428 L9.625,24.1071428 L9.625,20.5357143 Z M16.625,20.5357143 L18.375,20.5357143 L18.375,24.1071428 L16.625,24.1071428 L16.625,20.5357143 Z" id="形状"></path>
                <polygon id="路径" points="7.00000001 23.2142857 21 23.2142857 21 25 7.00000001 25"></polygon>
            </g>
        </g>
    </g>
</svg>