<?xml version="1.0" encoding="UTF-8"?>
<svg width="46px" height="38px" viewBox="0 0 46 38" version="1.1" xmlns="http://www.w3.org/2000/svg" xmlns:xlink="http://www.w3.org/1999/xlink">
    <title>编组</title>
    <g id="页面-1" stroke="none" stroke-width="1" fill="none" fill-rule="evenodd">
        <g id="首页备份-6" transform="translate(-818.000000, -1322.000000)" fill="#FFFFFF">
            <g id="编组" transform="translate(818.000000, 1322.000000)">
                <path d="M37.004895,18.4242424 C37.3245029,18.4242424 37.5835962,18.6833358 37.5835962,19.0029436 L37.5835962,37.4212988 C37.5835962,37.7409067 37.3245029,38 37.004895,38 L29.9635592,38 C29.6439514,38 29.384858,37.7409067 29.384858,37.4212988 L29.384858,19.0029436 C29.384858,18.6833358 29.6439514,18.4242424 29.9635592,18.4242424 L37.004895,18.4242424 Z M13.7595341,18.4242424 C14.2192957,18.4242424 14.6483852,18.6424616 14.919561,19.0064237 L15.0039297,19.1330429 L15.8323429,20.5299806 C15.9383109,20.7086725 16.0042389,20.907547 16.0263713,21.1129091 L16.0347003,21.2679331 L16.0347003,35.6153086 C16.0347003,35.9371736 15.9274336,36.2482303 15.7323321,36.5004587 L15.6275517,36.6214482 L14.7198055,37.5593866 C14.4813222,37.805802 14.1642934,37.9583351 13.8262136,37.9926181 L13.6802011,38 L8.48895899,38 L8.48895899,18.4242424 L13.7595341,18.4242424 Z M23.2902208,18.4242424 L26.9179811,38 L25.3217666,38 L24.5962145,34.1136364 L20.533123,34.1136364 L19.807571,38 L18.2113565,38 L21.8391167,18.4242424 L23.2902208,18.4242424 Z M35.5537909,19.8636364 L31.4146633,19.8636364 C31.1270163,19.8636364 30.888386,20.073502 30.8435364,20.3484692 L30.8359621,20.4423375 L30.8359621,35.9819049 C30.8359621,36.2695519 31.0458278,36.5081822 31.320795,36.5530318 L31.4146633,36.5606061 L35.5537909,36.5606061 C35.841438,36.5606061 36.0800683,36.3507405 36.1249179,36.0757732 L36.1324921,35.9819049 L36.1324921,20.4423375 C36.1324921,20.1227297 35.8733988,19.8636364 35.5537909,19.8636364 Z M12.8180648,19.8636364 L9.94006309,19.8636364 L9.94006309,36.5606061 L13.0030671,36.5606061 C13.3662269,36.5606061 13.7161048,36.4240273 13.9832218,36.1779917 L14.1169979,36.0547734 C14.414397,35.7808457 14.5835962,35.3949646 14.5835962,34.9906348 L14.5835962,21.7621122 C14.5835962,21.4633968 14.491132,21.1720045 14.3188983,20.927942 L14.0001199,20.4762191 C13.7290417,20.0920898 13.2882123,19.8636364 12.8180648,19.8636364 Z M22.5646688,22.5984848 L20.8233438,32.7462121 L24.3059937,32.7462121 L22.5646688,22.5984848 Z M6.09637768,4.10227273 C6.38402473,4.10227273 6.62265505,4.31213834 6.66750464,4.58710557 L6.67507886,4.68097391 L6.67507886,15.9772727 L5.22397476,15.9772727 L5.22397476,15.4734848 L0.634252051,15.9161069 C0.615788626,15.9178875 0.597250269,15.9187793 0.578701186,15.9187793 C0.29105413,15.9187793 0.0524238142,15.7089137 0.00757422153,15.4339465 L0,15.3400782 L0,9.7908224 C4.64373756e-16,9.50317534 0.20986561,9.26454503 0.484832847,9.21969543 L0.578701186,9.21212121 L5.22397476,9.21212121 L5.22397476,5.54166667 L1.4511041,5.54166667 L1.4511041,7.125 L0,7.125 L0,4.68097391 C6.46934676e-17,4.39332686 0.20986561,4.15469654 0.484832847,4.10984695 L0.578701186,4.10227273 L6.09637768,4.10227273 Z M11.3911672,4.10227273 L11.3911672,15.9772727 L9.79495268,15.9772727 L9.79495268,4.10227273 L11.3911672,4.10227273 Z M15.1640379,4.24621212 L17.1955836,13.0984848 L19.2271293,4.24621212 L20.9684543,4.24621212 L18.0662461,15.9772727 L16.1798107,15.9772727 L13.4227129,4.24621212 L15.1640379,4.24621212 Z M28.8061569,4.10227273 C29.1257647,4.10227273 29.384858,4.36136607 29.384858,4.68097391 L29.384858,9.2811473 C29.384858,9.60075514 29.1257647,9.85984848 28.8061569,9.85984848 L24.3059937,9.85984848 L24.3059937,13.9591776 C24.3059937,14.2787854 24.565087,14.5378788 24.8846949,14.5378788 L27.3550528,14.5378788 C27.6746606,14.5378788 27.9337539,14.2787854 27.9337539,13.9591776 L27.9337539,11.4431818 L29.384858,11.4431818 L29.384858,15.3985715 C29.384858,15.7181794 29.1257647,15.9772727 28.8061569,15.9772727 L23.4335908,15.9772727 C23.1139829,15.9772727 22.8548896,15.7181794 22.8548896,15.3985715 L22.8548896,4.68097391 C22.8548896,4.36136607 23.1139829,4.10227273 23.4335908,4.10227273 L28.8061569,4.10227273 Z M38.1657783,4.10227273 C38.4853861,4.10227273 38.7444795,4.36136607 38.7444795,4.68097391 L38.7444795,4.68097391 L38.7444795,7.26893939 L37.2933754,7.26893939 L37.2933754,5.68634196 C37.2933754,5.60644 37.2286021,5.54166667 37.1487001,5.54166667 L37.1487001,5.54166667 L34.1005113,5.54166667 C34.0206093,5.54166667 33.955836,5.60644 33.955836,5.68634196 L33.955836,5.68634196 L33.955836,6.87944547 C33.955836,7.34936129 34.1840656,7.79000346 34.5678827,8.06112208 L34.5678827,8.06112208 L38.1324328,10.5790294 C38.5162499,10.8501481 38.7444795,11.2907902 38.7444795,11.760706 L38.7444795,11.760706 L38.7444795,15.3985715 C38.7444795,15.7181794 38.4853861,15.9772727 38.1657783,15.9772727 L38.1657783,15.9772727 L33.083433,15.9772727 C32.7638252,15.9772727 32.5047319,15.7181794 32.5047319,15.3985715 L32.5047319,15.3985715 L32.5047319,12.3787879 L33.955836,12.3787879 L33.955836,14.3932035 C33.955836,14.4731055 34.0206093,14.5378788 34.1005113,14.5378788 L34.1005113,14.5378788 L37.1487001,14.5378788 C37.2286021,14.5378788 37.2933754,14.4731055 37.2933754,14.3932035 L37.2933754,14.3932035 L37.2933754,12.6152322 C37.2933754,12.1503993 37.0700282,11.7138765 36.6930514,11.441924 L36.6930514,11.441924 L33.1050559,8.85353054 C32.7280791,8.58157809 32.5047319,8.14505522 32.5047319,7.68022233 L32.5047319,7.68022233 L32.5047319,4.68097391 C32.5047319,4.36136607 32.7638252,4.10227273 33.083433,4.10227273 L33.083433,4.10227273 Z M43.8958991,0 L43.8958991,4.10227273 L45.7823344,4.10227273 L45.7823344,5.54166667 L43.8958991,5.54166667 L43.8958991,14.5378788 L46,14.5378788 L46,15.9772727 L43.0234961,15.9772727 C42.7038883,15.9772727 42.444795,15.7181794 42.444795,15.3985715 L42.444795,15.3985715 L42.444795,5.54166667 L40.5583596,5.54166667 L40.5583596,4.10227273 L42.444795,4.10227273 L42.444795,0 L43.8958991,0 Z M5.22397476,10.6515152 L1.4511041,10.6515152 L1.4511041,14.3939394 L5.22397476,14.0340909 L5.22397476,10.6515152 Z M27.3550528,5.54166667 L24.8846949,5.54166667 C24.565087,5.54166667 24.3059937,5.80076001 24.3059937,6.12036785 L24.3059937,8.42045455 L27.3550528,8.42045455 C27.6746606,8.42045455 27.9337539,8.1613612 27.9337539,7.84175336 L27.9337539,6.12036785 C27.9337539,5.80076001 27.6746606,5.54166667 27.3550528,5.54166667 Z M11.3911672,0 L11.3911672,2.4469697 L9.79495268,2.4469697 L9.79495268,0 L11.3911672,0 Z" id="形状结合"></path>
            </g>
        </g>
    </g>
</svg>