<svg width="36" height="36" viewBox="0 0 36 36" fill="none" xmlns="http://www.w3.org/2000/svg">
<rect y="0.308594" width="35.4762" height="35.4762" rx="17.7381" fill="#4CA2FF"/>
<path d="M35.4762 18.0467C35.4762 27.847 27.5384 35.7848 17.7381 35.7848C7.9378 35.7848 0 27.847 0 18.0467C0 8.24639 7.9378 0.308594 17.7381 0.308594C27.5384 0.308594 35.4762 8.24639 35.4762 18.0467ZM14.492 27.4035C22.3589 27.4035 26.6604 20.8848 26.6604 15.2352C26.6604 15.049 26.6604 14.8627 26.6515 14.6853C27.4852 14.0822 28.2124 13.3284 28.7889 12.4681C28.0262 12.8051 27.2014 13.0357 26.3322 13.1421C27.2191 12.61 27.8932 11.7763 28.2124 10.7741C27.3876 11.2619 26.4741 11.6166 25.4985 11.8117C24.718 10.9781 23.6094 10.4637 22.3766 10.4637C20.0174 10.4637 18.1017 12.3794 18.1017 14.7385C18.1017 15.0756 18.1372 15.4037 18.217 15.7141C14.6605 15.5367 11.512 13.8339 9.40119 11.2441C9.03756 11.8738 8.8247 12.61 8.8247 13.3904C8.8247 14.8716 9.57857 16.1842 10.7315 16.9469C10.0309 16.9292 9.37458 16.7341 8.79809 16.4148C8.79809 16.4325 8.79809 16.4503 8.79809 16.468C8.79809 18.5434 10.2704 20.264 12.2304 20.6631C11.8757 20.7606 11.4943 20.8138 11.104 20.8138C10.8291 20.8138 10.563 20.7872 10.297 20.734C10.838 22.4369 12.4167 23.6697 14.288 23.7051C12.8246 24.8492 10.9799 25.5322 8.97548 25.5322C8.62958 25.5322 8.29256 25.5144 7.95554 25.4701C9.8269 26.694 12.0796 27.4035 14.492 27.4035Z" fill="#4CA2FF"/>
<path d="M24.5 11.3149C23.2561 10.737 21.9229 10.3098 20.5286 10.0669C20.5162 10.0645 20.5033 10.0661 20.4918 10.0715C20.4803 10.0769 20.4707 10.0858 20.4644 10.0971C20.2937 10.4061 20.1034 10.809 19.9701 11.1273C18.4914 10.8997 16.988 10.8997 15.5093 11.1273C15.3608 10.7746 15.1933 10.4306 15.0077 10.0971C15.0014 10.0857 14.9919 10.0765 14.9804 10.0708C14.9689 10.0651 14.9561 10.0632 14.9435 10.0652C13.55 10.3081 12.2168 10.7353 10.9721 11.3141C10.9614 11.3187 10.9523 11.3266 10.9461 11.3367C8.41613 15.1686 7.72266 18.9059 8.0633 22.5962C8.06424 22.6053 8.06697 22.614 8.0713 22.6219C8.07563 22.6299 8.08148 22.6368 8.0885 22.6423C9.56518 23.7499 11.2122 24.5937 12.9606 25.1383C12.9728 25.1422 12.9859 25.1421 12.9981 25.1383C13.0102 25.1344 13.021 25.1268 13.0289 25.1165C13.4052 24.5981 13.7386 24.0481 14.0256 23.4723C14.0296 23.4645 14.0319 23.4558 14.0324 23.4469C14.0328 23.4381 14.0314 23.4292 14.0283 23.421C14.0251 23.4127 14.0203 23.4052 14.0141 23.3991C14.0078 23.3929 14.0004 23.3882 13.9923 23.3852C13.4671 23.1815 12.9583 22.9356 12.4704 22.6498C12.4617 22.6447 12.4543 22.6374 12.4489 22.6286C12.4436 22.6197 12.4404 22.6097 12.4398 22.5993C12.4392 22.5889 12.441 22.5785 12.4452 22.5691C12.4494 22.5596 12.4559 22.5514 12.4639 22.5451C12.5664 22.4673 12.6688 22.386 12.7663 22.3048C12.7751 22.2975 12.7857 22.2928 12.7969 22.2913C12.8081 22.2899 12.8195 22.2916 12.8298 22.2964C16.0223 23.7739 19.4799 23.7739 22.635 22.2964C22.6453 22.2913 22.6568 22.2893 22.6682 22.2907C22.6795 22.292 22.6903 22.2966 22.6992 22.3039C22.7968 22.386 22.8984 22.4673 23.0017 22.5451C23.0098 22.5513 23.0163 22.5594 23.0207 22.5688C23.025 22.5781 23.027 22.5885 23.0266 22.5989C23.0261 22.6092 23.0231 22.6193 23.0179 22.6282C23.0127 22.6371 23.0055 22.6445 22.9968 22.6498C22.5106 22.938 22.005 23.1817 21.4741 23.3844C21.4659 23.3875 21.4585 23.3923 21.4523 23.3985C21.4461 23.4047 21.4413 23.4123 21.4381 23.4206C21.4349 23.4289 21.4336 23.4378 21.434 23.4468C21.4345 23.4557 21.4368 23.4644 21.4408 23.4723C21.7334 24.0478 22.0684 24.5955 22.4367 25.1157C22.4443 25.1263 22.455 25.1343 22.4672 25.1385C22.4794 25.1427 22.4926 25.1429 22.5049 25.1391C24.2564 24.5961 25.9061 23.7519 27.3844 22.6423C27.3916 22.6371 27.3977 22.6304 27.4022 22.6226C27.4066 22.6148 27.4095 22.6061 27.4104 22.5971C27.8169 18.3305 26.7291 14.6233 24.5252 11.3384C24.5198 11.3277 24.5108 11.3194 24.5 11.3149ZM14.5029 20.349C13.5419 20.349 12.7493 19.4537 12.7493 18.3556C12.7493 17.2567 13.5265 16.3622 14.5029 16.3622C15.4865 16.3622 16.2719 17.2642 16.2564 18.3556C16.2564 19.4545 15.4792 20.349 14.5029 20.349ZM20.9863 20.349C20.0246 20.349 19.2327 19.4537 19.2327 18.3556C19.2327 17.2567 20.0091 16.3622 20.9863 16.3622C21.97 16.3622 22.7553 17.2642 22.7399 18.3556C22.7399 19.4545 21.9708 20.349 20.9863 20.349Z" fill="white"/>
</svg>
