<svg width="36" height="36" viewBox="0 0 36 36" fill="none" xmlns="http://www.w3.org/2000/svg">
<rect x="0.476562" y="0.308594" width="35.4762" height="35.4762" rx="17.7381" fill="white"/>
<path d="M35.9528 18.0467C35.9528 27.847 28.015 35.7848 18.2147 35.7848C8.41436 35.7848 0.476562 27.847 0.476562 18.0467C0.476562 8.24639 8.41436 0.308594 18.2147 0.308594C28.015 0.308594 35.9528 8.24639 35.9528 18.0467ZM14.9686 27.4035C22.8354 27.4035 27.1369 20.8848 27.1369 15.2352C27.1369 15.049 27.1369 14.8627 27.128 14.6853C27.9617 14.0822 28.689 13.3284 29.2655 12.4681C28.5028 12.8051 27.6779 13.0357 26.8088 13.1421C27.6957 12.61 28.3697 11.7763 28.689 10.7741C27.8642 11.2619 26.9507 11.6166 25.9751 11.8117C25.1946 10.9781 24.086 10.4637 22.8532 10.4637C20.494 10.4637 18.5783 12.3794 18.5783 14.7385C18.5783 15.0756 18.6138 15.4037 18.6936 15.7141C15.1371 15.5367 11.9886 13.8339 9.87775 11.2441C9.51412 11.8738 9.30126 12.61 9.30126 13.3904C9.30126 14.8716 10.0551 16.1842 11.2081 16.9469C10.5075 16.9292 9.85115 16.7341 9.27466 16.4148C9.27466 16.4325 9.27466 16.4503 9.27466 16.468C9.27466 18.5434 10.7469 20.264 12.707 20.6631C12.3522 20.7606 11.9708 20.8138 11.5806 20.8138C11.3057 20.8138 11.0396 20.7872 10.7735 20.734C11.3145 22.4369 12.8932 23.6697 14.7646 23.7051C13.3012 24.8492 11.4564 25.5322 9.45204 25.5322C9.10615 25.5322 8.76912 25.5144 8.4321 25.4701C10.3035 26.694 12.5562 27.4035 14.9686 27.4035Z" fill="#4CA2FF"/>
</svg>
